
<svg xmlns="http://www.w3.org/2000/svg" version="1.1" xmlns:xlink="http://www.w3.org/1999/xlink" preserveAspectRatio="none" x="0px" y="0px" width="1920px" height="1080px" viewBox="0 0 1920 1080">
<defs>
<g id="Layer0_0_FILL">
<path fill="#FFFFFF" stroke="none" d="
M 1566.35 1073.65
L 1566.45 1080 1920 1080 1920 0 0 0 0 1080 1566.3 1080 1566.35 1073.65
M 711.95 317.05
L 711.95 325.5 745.65 325.5 745.65 333.9 762.5 333.9 762.5 342.35 770.95 342.35 770.95 350.8 787.8 350.8 787.8 359.2 796.25 359.2 796.25 367.65 804.7 367.65 804.7 376.1 821.55 376.1 821.55 392.95 829.95 392.95 829.95 401.4 838.4 401.4 838.4 409.8 846.85 409.8 846.85 426.65 855.25 426.65 855.25 435.1 863.7 435.1 863.7 451.95 872.15 451.95 872.15 485.7 880.55 485.7 880.55 595.3 872.15 595.3 872.15 629.05 863.7 629.05 863.7 645.9 855.25 645.9 855.25 654.3 846.85 654.3 846.85 671.2 838.4 671.2 838.4 679.6 829.95 679.6 829.95 696.5 821.55 696.5 821.55 704.9 813.1 704.9 813.1 713.35 796.25 713.35 796.25 721.75 787.8 721.75 787.8 730.2 770.95 730.2 770.95 738.65 762.5 738.65 762.5 747.05 745.65 747.05 745.65 755.5 711.95 755.5 711.95 763.95 602.35 763.95 602.35 755.5 568.6 755.5 568.6 747.05 551.75 747.05 551.75 738.65 543.3 738.65 543.3 730.2 526.45 730.2 526.45 721.75 518 721.75 518 713.35 509.6 713.35 509.6 704.9 492.75 704.9 492.75 688.05 484.3 688.05 484.3 679.6 475.85 679.6 475.85 671.2 467.45 671.2 467.45 654.3 459 654.3 459 645.9 450.6 645.9 450.6 629.05 442.15 629.05 442.15 595.3 433.7 595.3 433.7 485.7 442.15 485.7 442.15 451.95 450.6 451.95 450.6 435.1 459 435.1 459 426.65 467.45 426.65 467.45 409.8 475.85 409.8 475.85 401.4 484.3 401.4 484.3 392.95 492.75 392.95 492.75 376.1 509.6 376.1 509.6 367.65 518 367.65 518 359.2 526.45 359.2 526.45 350.8 543.3 350.8 543.3 342.35 551.75 342.35 551.75 333.9 568.6 333.9 568.6 325.5 602.35 325.5 602.35 317.05 711.95 317.05
M 1351.1 325.5
L 1351.1 333.9 1367.95 333.9 1367.95 342.35 1376.4 342.35 1376.4 350.8 1393.25 350.8 1393.25 359.2 1401.7 359.2 1401.7 367.65 1410.15 367.65 1410.15 376.1 1427 376.1 1427 392.95 1435.4 392.95 1435.4 401.4 1443.85 401.4 1443.85 409.8 1452.3 409.8 1452.3 426.65 1460.7 426.65 1460.7 435.1 1469.15 435.1 1469.15 451.95 1477.6 451.95 1477.6 485.7 1486 485.7 1486 595.3 1477.6 595.3 1477.6 629.05 1469.15 629.05 1469.15 645.9 1460.7 645.9 1460.7 654.3 1452.3 654.3 1452.3 671.2 1443.85 671.2 1443.85 679.6 1435.4 679.6 1435.4 696.5 1427 696.5 1427 704.9 1418.55 704.9 1418.55 713.35 1401.7 713.35 1401.7 721.75 1393.25 721.75 1393.25 730.2 1376.4 730.2 1376.4 738.65 1367.95 738.65 1367.95 747.05 1351.1 747.05 1351.1 755.5 1317.4 755.5 1317.4 763.95 1207.8 763.95 1207.8 755.5 1174.05 755.5 1174.05 747.05 1157.2 747.05 1157.2 738.65 1148.75 738.65 1148.75 730.2 1131.9 730.2 1131.9 721.75 1123.45 721.75 1123.45 713.35 1115.05 713.35 1115.05 704.9 1098.2 704.9 1098.2 688.05 1089.75 688.05 1089.75 679.6 1081.3 679.6 1081.3 671.2 1072.9 671.2 1072.9 654.3 1064.45 654.3 1064.45 645.9 1056.05 645.9 1056.05 629.05 1047.6 629.05 1047.6 595.3 1039.15 595.3 1039.15 485.7 1047.6 485.7 1047.6 451.95 1056.05 451.95 1056.05 435.1 1064.45 435.1 1064.45 426.65 1072.9 426.65 1072.9 409.8 1081.3 409.8 1081.3 401.4 1089.75 401.4 1089.75 392.95 1098.2 392.95 1098.2 376.1 1115.05 376.1 1115.05 367.65 1123.45 367.65 1123.45 359.2 1131.9 359.2 1131.9 350.8 1148.75 350.8 1148.75 342.35 1157.2 342.35 1157.2 333.9 1174.05 333.9 1174.05 325.5 1207.8 325.5 1207.8 317.05 1317.4 317.05 1317.4 325.5 1351.1 325.5
M 1136.05 708.7
L 1136.05 709.15 1136.6 709.15
Q 1136.326171875 708.9380859375 1136.05 708.7
M 1178.2 733.85
L 1178.2 734.45 1179.5 734.45
Q 1178.86171875 734.1640625 1178.2 733.85
M 1093.9 666.45
L 1093.9 667 1094.3 667
Q 1094.1119140625 666.7236328125 1093.9 666.45
M 1077.05 640.7
L 1077.05 641.7 1077.6 641.7
Q 1077.3234375 641.2052734375 1077.05 640.7
M 1068.6 623.4
L 1068.6 624.85 1069.2 624.85
Q 1068.909375 624.131640625 1068.6 623.4
M 1068.6 456.6
Q 1068.6873046875 456.4029296875 1068.75 456.2
L 1068.6 456.2 1068.6 456.6
M 1346.65 734.45
L 1346.85 734.45 1346.85 734.35
Q 1346.762890625 734.4126953125 1346.65 734.45
M 572.75 734.15
L 572.75 734.45 573.35 734.45
Q 573.0625 734.315234375 572.75 734.15
M 825.7 667
L 825.7 666.95
Q 825.680859375 666.975 825.65 667
L 825.7 667
M 842.4 641.7
L 842.55 641.7 842.55 641.45
Q 842.4802734375 641.575 842.4 641.7
M 850.8 624.85
L 851 624.85 851 624.4
Q 850.90703125 624.6376953125 850.8 624.85
M 757.75 726
L 758.25 726 758.25 725.7
Q 758.0001953125 725.8615234375 757.75 726
M 740.5 734.45
L 741.4 734.45 741.4 734.05
Q 740.96796875 734.2638671875 740.5 734.45
M 783.4 709.15
L 783.55 709.15 783.55 709.05
Q 783.484765625 709.1001953125 783.4 709.15 Z"/>

<path fill="#FFC107" stroke="none" d="
M 1351.1 333.9
L 1351.1 325.5 1317.4 325.5 1317.4 317.05 1207.8 317.05 1207.8 325.5 1174.05 325.5 1174.05 333.9 1157.2 333.9 1157.2 342.35 1148.75 342.35 1148.75 350.8 1131.9 350.8 1131.9 359.2 1123.45 359.2 1123.45 367.65 1115.05 367.65 1115.05 376.1 1098.2 376.1 1098.2 392.95 1089.75 392.95 1089.75 401.4 1081.3 401.4 1081.3 409.8 1072.9 409.8 1072.9 426.65 1064.45 426.65 1064.45 435.1 1056.05 435.1 1056.05 451.95 1047.6 451.95 1047.6 485.7 1039.15 485.7 1039.15 595.3 1047.6 595.3 1047.6 629.05 1056.05 629.05 1056.05 645.9 1064.45 645.9 1064.45 654.3 1072.9 654.3 1072.9 671.2 1081.3 671.2 1081.3 679.6 1089.75 679.6 1089.75 688.05 1098.2 688.05 1098.2 704.9 1115.05 704.9 1115.05 713.35 1123.45 713.35 1123.45 721.75 1131.9 721.75 1131.9 730.2 1148.75 730.2 1148.75 738.65 1157.2 738.65 1157.2 747.05 1174.05 747.05 1174.05 755.5 1207.8 755.5 1207.8 763.95 1317.4 763.95 1317.4 755.5 1351.1 755.5 1351.1 747.05 1367.95 747.05 1367.95 738.65 1376.4 738.65 1376.4 730.2 1393.25 730.2 1393.25 721.75 1401.7 721.75 1401.7 713.35 1418.55 713.35 1418.55 704.9 1427 704.9 1427 696.5 1435.4 696.5 1435.4 679.6 1443.85 679.6 1443.85 671.2 1452.3 671.2 1452.3 654.3 1460.7 654.3 1460.7 645.9 1469.15 645.9 1469.15 629.05 1477.6 629.05 1477.6 595.3 1486 595.3 1486 485.7 1477.6 485.7 1477.6 451.95 1469.15 451.95 1469.15 435.1 1460.7 435.1 1460.7 426.65 1452.3 426.65 1452.3 409.8 1443.85 409.8 1443.85 401.4 1435.4 401.4 1435.4 392.95 1427 392.95 1427 376.1 1410.15 376.1 1410.15 367.65 1401.7 367.65 1401.7 359.2 1393.25 359.2 1393.25 350.8 1376.4 350.8 1376.4 342.35 1367.95 342.35 1367.95 333.9 1351.1 333.9
M 1363.7 355.05
L 1363.7 363.45 1372.15 363.45 1372.15 371.9 1389 371.9 1389 380.3 1397.45 380.3 1397.45 388.75 1405.85 388.75 1405.85 397.2 1414.3 397.2 1414.3 405.6 1422.7 405.6 1422.7 414.05 1431.15 414.05 1431.15 430.9 1439.6 430.9 1439.6 447.8 1448 447.8 1448 456.2 1456.45 456.2 1456.45 481.5 1464.9 481.5 1464.9 599.55 1456.45 599.55 1456.45 624.85 1448 624.85 1448 641.7 1439.6 641.7 1439.6 650.15 1431.15 650.15 1431.15 667 1422.7 667 1422.7 675.45 1414.3 675.45 1414.3 683.85 1405.85 683.85 1405.85 692.3 1397.45 692.3 1397.45 700.7 1389 700.7 1389 709.15 1372.15 709.15 1372.15 717.6 1363.7 717.6 1363.7 726 1346.85 726 1346.85 734.35 1346.85 734.45 1346.65 734.45 1321.55 734.45 1321.55 742.9 1203.5 742.9 1203.5 734.45 1179.5 734.45 1178.2 734.45 1178.2 733.85 1178.2 726 1169.8 726 1169.8 717.6 1152.95 717.6 1152.95 709.15 1136.6 709.15 1136.05 709.15 1136.05 708.7 1136.05 700.7 1127.65 700.7 1127.65 692.3 1119.2 692.3 1119.2 683.85 1110.75 683.85 1110.75 675.45 1102.35 675.45 1102.35 667 1094.3 667 1093.9 667 1093.9 666.45 1093.9 650.15 1085.5 650.15 1085.5 641.7 1077.6 641.7 1077.05 641.7 1077.05 640.7 1077.05 624.85 1069.2 624.85 1068.6 624.85 1068.6 623.4 1068.6 599.55 1060.2 599.55 1060.2 481.5 1068.6 481.5 1068.6 456.6 1068.6 456.2 1068.75 456.2 1077.05 456.2 1077.05 447.8 1085.5 447.8 1085.5 430.9 1093.9 430.9 1093.9 414.05 1102.35 414.05 1102.35 405.6 1110.75 405.6 1110.75 397.2 1119.2 397.2 1119.2 388.75 1127.65 388.75 1127.65 380.3 1136.05 380.3 1136.05 371.9 1152.95 371.9 1152.95 363.45 1169.8 363.45 1169.8 355.05 1178.2 355.05 1178.2 346.6 1203.5 346.6 1203.5 338.15 1321.55 338.15 1321.55 346.6 1346.85 346.6 1346.85 355.05 1363.7 355.05 Z"/>

<path fill="#3F51B5" stroke="none" d="
M 711.95 325.5
L 711.95 317.05 602.35 317.05 602.35 325.5 568.6 325.5 568.6 333.9 551.75 333.9 551.75 342.35 543.3 342.35 543.3 350.8 526.45 350.8 526.45 359.2 518 359.2 518 367.65 509.6 367.65 509.6 376.1 492.75 376.1 492.75 392.95 484.3 392.95 484.3 401.4 475.85 401.4 475.85 409.8 467.45 409.8 467.45 426.65 459 426.65 459 435.1 450.6 435.1 450.6 451.95 442.15 451.95 442.15 485.7 433.7 485.7 433.7 595.3 442.15 595.3 442.15 629.05 450.6 629.05 450.6 645.9 459 645.9 459 654.3 467.45 654.3 467.45 671.2 475.85 671.2 475.85 679.6 484.3 679.6 484.3 688.05 492.75 688.05 492.75 704.9 509.6 704.9 509.6 713.35 518 713.35 518 721.75 526.45 721.75 526.45 730.2 543.3 730.2 543.3 738.65 551.75 738.65 551.75 747.05 568.6 747.05 568.6 755.5 602.35 755.5 602.35 763.95 711.95 763.95 711.95 755.5 745.65 755.5 745.65 747.05 762.5 747.05 762.5 738.65 770.95 738.65 770.95 730.2 787.8 730.2 787.8 721.75 796.25 721.75 796.25 713.35 813.1 713.35 813.1 704.9 821.55 704.9 821.55 696.5 829.95 696.5 829.95 679.6 838.4 679.6 838.4 671.2 846.85 671.2 846.85 654.3 855.25 654.3 855.25 645.9 863.7 645.9 863.7 629.05 872.15 629.05 872.15 595.3 880.55 595.3 880.55 485.7 872.15 485.7 872.15 451.95 863.7 451.95 863.7 435.1 855.25 435.1 855.25 426.65 846.85 426.65 846.85 409.8 838.4 409.8 838.4 401.4 829.95 401.4 829.95 392.95 821.55 392.95 821.55 376.1 804.7 376.1 804.7 367.65 796.25 367.65 796.25 359.2 787.8 359.2 787.8 350.8 770.95 350.8 770.95 342.35 762.5 342.35 762.5 333.9 745.65 333.9 745.65 325.5 711.95 325.5
M 716.1 338.15
L 716.1 346.6 741.4 346.6 741.4 355.05 758.25 355.05 758.25 363.45 766.7 363.45 766.7 371.9 783.55 371.9 783.55 380.3 792 380.3 792 388.75 800.4 388.75 800.4 397.2 808.85 397.2 808.85 405.6 817.25 405.6 817.25 414.05 825.7 414.05 825.7 430.9 834.15 430.9 834.15 447.8 842.55 447.8 842.55 456.2 851 456.2 851 481.5 859.45 481.5 859.45 599.55 851 599.55 851 624.4 851 624.85 850.8 624.85 842.55 624.85 842.55 641.45 842.55 641.7 842.4 641.7 834.15 641.7 834.15 650.15 825.7 650.15 825.7 666.95 825.7 667 825.65 667 817.25 667 817.25 675.45 808.85 675.45 808.85 683.85 800.4 683.85 800.4 692.3 792 692.3 792 700.7 783.55 700.7 783.55 709.05 783.55 709.15 783.4 709.15 766.7 709.15 766.7 717.6 758.25 717.6 758.25 725.7 758.25 726 757.75 726 741.4 726 741.4 734.05 741.4 734.45 740.5 734.45 716.1 734.45 716.1 742.9 598.05 742.9 598.05 734.45 573.35 734.45 572.75 734.45 572.75 734.15 572.75 726 564.35 726 564.35 717.6 547.5 717.6 547.5 709.15 530.6 709.15 530.6 700.7 522.2 700.7 522.2 692.3 513.75 692.3 513.75 683.85 505.3 683.85 505.3 675.45 496.9 675.45 496.9 667 488.45 667 488.45 650.15 480.05 650.15 480.05 641.7 471.6 641.7 471.6 624.85 463.15 624.85 463.15 599.55 454.75 599.55 454.75 481.5 463.15 481.5 463.15 456.2 471.6 456.2 471.6 447.8 480.05 447.8 480.05 430.9 488.45 430.9 488.45 414.05 496.9 414.05 496.9 405.6 505.3 405.6 505.3 397.2 513.75 397.2 513.75 388.75 522.2 388.75 522.2 380.3 530.6 380.3 530.6 371.9 547.5 371.9 547.5 363.45 564.35 363.45 564.35 355.05 572.75 355.05 572.75 346.6 598.05 346.6 598.05 338.15 716.1 338.15 Z"/>
</g>
</defs>

<g transform="matrix( 1, 0, 0, 1, 0,0) ">
<use xlink:href="#Layer0_0_FILL"/>
</g>
</svg>
